<svg xmlns="http://www.w3.org/2000/svg" viewBox="0 0 64 64" role="img" aria-label="WhiskyMart favicon">
<title>WhiskyMart Favicon</title>
<rect width="64" height="64" rx="14" fill="#0E0E10"/>
<circle cx="32" cy="32" r="25" fill="none" stroke="#B08D57" stroke-width="2"/>
<circle cx="32" cy="32" r="21.5" fill="none" stroke="#B08D57" stroke-width=".8"/>
<path d="M37.442 39.020 L35.682 39.020 L32.007 25.978 L28.332 39.020 L26.572 39.020 L22.372 24.132 L20.780 24.132 L20.780 22.980 L26.634 22.980 L26.634 24.132 L24.637 24.132 L27.978 35.981 L31.632 22.980 L33.372 22.980 L37.087 36.118 L40.449 24.132 L38.603 24.132 L38.603 22.980 L43.220 22.980 L43.220 24.132 L41.642 24.132 L37.442 39.020 Z" fill="#B08D57"/>
<path d="M22.873 55.291 L22.873 54.256 L24.730 54.256 L24.730 41.756 L22.767 41.756 L22.767 40.709 L27.014 40.709 L32.133 51.091 L37.248 40.709 L41.233 40.709 L41.233 41.756 L39.289 41.756 L39.289 54.256 L41.155 54.256 L41.155 55.291 L35.452 55.291 L35.452 54.256 L37.308 54.256 L37.308 42.984 L32.308 53.153 L30.930 53.153 L25.930 42.984 L25.930 54.256 L27.786 54.256 L27.786 55.291 L22.873 55.291 Z" fill="#B08D57"/>
</svg>