<svg xmlns="http://www.w3.org/2000/svg" viewBox="0 0 256 256" role="img" aria-label="WhiskyMart monogram">
<title>WhiskyMart Monogram</title>
<g id="logo">
<g color="currentColor" fill="none" stroke="currentColor">
  <circle cx="128" cy="128" r="108" stroke-width="4"/>
  <circle cx="128" cy="128" r="96" stroke-width="1.8"/>
</g>
<g fill="currentColor">
  <path d="M145.809 134.246 L140.049 134.246 L128.023 91.564 L115.996 134.246 L110.236 134.246 L96.489 85.523 L91.280 85.523 L91.280 81.754 L110.439 81.754 L110.439 85.523 L103.903 85.523 L114.838 124.301 L126.796 81.754 L132.489 81.754 L144.650 124.751 L155.653 85.523 L149.611 85.523 L149.611 81.754 L164.720 81.754 L164.720 85.523 L159.556 85.523 L145.809 134.246 Z"/>
  <path d="M98.795 187.330 L98.795 184.020 L104.735 184.020 L104.735 144.020 L98.455 144.020 L98.455 140.670 L112.045 140.670 L128.425 173.890 L144.795 140.670 L157.545 140.670 L157.545 144.020 L151.325 144.020 L151.325 184.020 L157.295 184.020 L157.295 187.330 L139.045 187.330 L139.045 184.020 L144.985 184.020 L144.985 147.950 L128.985 180.490 L124.575 180.490 L108.575 147.950 L108.575 184.020 L114.515 184.020 L114.515 187.330 L98.795 187.330 Z"/>
  <path d="M104.739 199.438 L108.887 199.438 L108.887 200.187 L105.626 200.187 L105.626 202.129 L108.751 202.129 L108.751 202.875 L105.626 202.875 L105.626 205.253 L108.966 205.253 L108.966 206.000 L104.739 206.000 L104.739 199.438 Z M114.189 199.654 L114.189 200.520 Q113.684 200.278 113.235 200.160 Q112.787 200.040 112.369 200.040 Q111.645 200.040 111.251 200.322 Q110.857 200.603 110.857 201.122 Q110.857 201.558 111.119 201.780 Q111.380 202.001 112.110 202.137 L112.646 202.247 Q113.639 202.437 114.111 202.913 Q114.584 203.390 114.584 204.189 Q114.584 205.144 113.944 205.636 Q113.306 206.128 112.071 206.128 Q111.605 206.128 111.080 206.023 Q110.555 205.917 109.993 205.710 L109.993 204.796 Q110.533 205.099 111.051 205.253 Q111.570 205.407 112.071 205.407 Q112.830 205.407 113.244 205.108 Q113.657 204.809 113.657 204.255 Q113.657 203.773 113.360 203.500 Q113.064 203.227 112.387 203.090 L111.846 202.985 Q110.853 202.788 110.409 202.366 Q109.966 201.944 109.966 201.192 Q109.966 200.322 110.579 199.821 Q111.192 199.320 112.268 199.320 Q112.730 199.320 113.209 199.405 Q113.688 199.488 114.189 199.654 Z M115.584 199.438 L121.134 199.438 L121.134 200.187 L118.806 200.187 L118.806 206.000 L117.914 206.000 L117.914 200.187 L115.584 200.187 L115.584 199.438 Z M131.682 205.253 L134.780 205.253 L134.780 206.000 L130.614 206.000 L130.614 205.253 Q131.119 204.730 131.991 203.850 Q132.864 202.968 133.088 202.712 Q133.514 202.234 133.683 201.902 Q133.853 201.570 133.853 201.250 Q133.853 200.727 133.486 200.398 Q133.119 200.067 132.530 200.067 Q132.112 200.067 131.648 200.212 Q131.185 200.357 130.658 200.652 L130.658 199.755 Q131.194 199.540 131.659 199.430 Q132.126 199.320 132.513 199.320 Q133.532 199.320 134.138 199.831 Q134.745 200.340 134.745 201.192 Q134.745 201.597 134.593 201.960 Q134.442 202.321 134.041 202.813 Q133.932 202.941 133.343 203.550 Q132.755 204.159 131.682 205.253 Z M138.047 200.023 Q137.362 200.023 137.016 200.698 Q136.671 201.372 136.671 202.726 Q136.671 204.075 137.016 204.750 Q137.362 205.425 138.047 205.425 Q138.737 205.425 139.082 204.750 Q139.428 204.075 139.428 202.726 Q139.428 201.372 139.082 200.698 Q138.737 200.023 138.047 200.023 Z M138.047 199.320 Q139.150 199.320 139.733 200.194 Q140.315 201.065 140.315 202.726 Q140.315 204.383 139.733 205.256 Q139.150 206.128 138.047 206.128 Q136.944 206.128 136.362 205.256 Q135.780 204.383 135.780 202.726 Q135.780 201.065 136.362 200.194 Q136.944 199.320 138.047 199.320 Z M142.382 205.253 L145.480 205.253 L145.480 206.000 L141.315 206.000 L141.315 205.253 Q141.820 204.730 142.692 203.850 Q143.565 202.968 143.788 202.712 Q144.215 202.234 144.383 201.902 Q144.553 201.570 144.553 201.250 Q144.553 200.727 144.186 200.398 Q143.819 200.067 143.230 200.067 Q142.812 200.067 142.348 200.212 Q141.886 200.357 141.358 200.652 L141.358 199.755 Q141.894 199.540 142.360 199.430 Q142.827 199.320 143.213 199.320 Q144.233 199.320 144.839 199.831 Q145.445 200.340 145.445 201.192 Q145.445 201.597 145.293 201.960 Q145.143 202.321 144.742 202.813 Q144.632 202.941 144.043 203.550 Q143.455 204.159 142.382 205.253 Z M149.442 200.212 L147.200 203.715 L149.442 203.715 L149.442 200.212 Z M149.208 199.438 L150.325 199.438 L150.325 203.715 L151.261 203.715 L151.261 204.453 L150.325 204.453 L150.325 206.000 L149.442 206.000 L149.442 204.453 L146.480 204.453 L146.480 203.597 L149.208 199.438 Z"/>
</g>
<g color="currentColor"><g fill="none" stroke="currentColor" stroke-width="3" stroke-linecap="round" stroke-linejoin="round">
  <path d="M111 34 C118 28 138 28 145 34 L145 57 C138 63 118 63 111 57 Z"/>
  <path d="M116 34 C113 42 113 49 116 57"/>
  <path d="M140 34 C143 42 143 49 140 57"/>
  <path d="M111 42 H145 M111 50 H145"/>
  <path d="M128 31 V60"/>
</g></g>
<g fill="currentColor"><circle cx="128" cy="190" r="4"/><rect x="126.2" y="194" width="3.6" height="10"/><rect x="126.2" y="201" width="8" height="3"/><rect x="126.2" y="196" width="6" height="3"/></g>
<g fill="currentColor"><circle cx="51" cy="128" r="3"/><circle cx="205" cy="128" r="3"/></g>
</g>
</svg>