<svg xmlns="http://www.w3.org/2000/svg" viewBox="0 0 850 220" role="img" aria-label="WhiskyMart logo">
<title>WhiskyMart Logo Wordmark</title>
<g id="logo">
<g fill="#F2EDE2"><path d="M220.468 128.657 L213.428 128.657 L198.729 76.489 L184.030 128.657 L176.990 128.657 L160.188 69.106 L153.822 69.106 L153.822 64.499 L177.238 64.499 L177.238 69.106 L169.249 69.106 L182.614 116.502 L197.230 64.499 L204.188 64.499 L219.052 117.052 L232.499 69.106 L225.115 69.106 L225.115 64.499 L243.582 64.499 L243.582 69.106 L237.270 69.106 L220.468 128.657 Z M247.461 128.657 L247.461 124.106 L254.583 124.106 L254.583 66.356 L247.021 66.356 L247.021 61.791 L262.490 61.791 L262.490 91.106 Q264.690 86.458 268.182 84.093 Q271.688 81.728 276.336 81.728 Q283.898 81.728 287.460 86.073 Q291.021 90.418 291.021 99.603 L291.021 124.106 L298.075 124.106 L298.075 128.657 L276.240 128.657 L276.240 124.106 L283.073 124.106 L283.073 102.106 Q283.073 93.718 281.025 90.652 Q278.990 87.572 273.751 87.572 Q268.251 87.572 265.363 91.573 Q262.490 95.574 262.490 103.219 L262.490 124.106 L269.365 124.106 L269.365 128.657 L247.461 128.657 Z M309.073 68.803 Q309.073 66.823 310.503 65.366 Q311.947 63.908 313.968 63.908 Q315.948 63.908 317.378 65.366 Q318.822 66.823 318.822 68.803 Q318.822 70.824 317.405 72.241 Q315.989 73.657 313.968 73.657 Q311.947 73.657 310.503 72.241 Q309.073 70.824 309.073 68.803 Z M319.165 124.106 L326.645 124.106 L326.645 128.657 L303.697 128.657 L303.697 124.106 L311.259 124.106 L311.259 87.572 L303.697 87.572 L303.697 82.979 L319.165 82.979 L319.165 124.106 Z M333.601 126.127 L333.601 115.471 L338.166 115.471 Q338.331 120.572 341.356 123.116 Q344.395 125.646 350.321 125.646 Q355.656 125.646 358.447 123.652 Q361.239 121.658 361.239 117.822 Q361.239 114.824 359.190 112.982 Q357.155 111.126 350.582 109.022 L344.862 107.083 Q338.977 105.199 336.337 102.367 Q333.697 99.521 333.697 95.134 Q333.697 88.864 338.290 85.303 Q342.882 81.728 351.009 81.728 Q354.625 81.728 358.612 82.677 Q362.614 83.626 366.862 85.427 L366.862 95.396 L362.311 95.396 Q362.132 90.968 359.204 88.479 Q356.289 85.991 351.270 85.991 Q346.279 85.991 343.721 87.751 Q341.164 89.511 341.164 93.031 Q341.164 95.918 343.102 97.664 Q345.041 99.397 350.844 101.198 L357.114 103.137 Q363.604 105.158 366.450 108.183 Q369.310 111.208 369.310 115.979 Q369.310 122.469 364.346 126.196 Q359.382 129.908 350.665 129.908 Q346.237 129.908 342.030 128.959 Q337.822 128.011 333.601 126.127 Z M399.001 128.657 L376.836 128.657 L376.836 124.106 L383.973 124.106 L383.973 66.356 L376.355 66.356 L376.355 61.791 L391.879 61.791 L391.879 105.323 L411.129 87.572 L404.543 87.572 L404.543 82.979 L425.223 82.979 L425.223 87.572 L417.399 87.572 L403.814 100.126 L421.180 124.106 L427.753 124.106 L427.753 128.657 L405.230 128.657 L405.230 124.106 L411.761 124.106 L398.108 105.323 L391.879 111.126 L391.879 124.106 L399.001 124.106 L399.001 128.657 Z M446.138 137.031 L449.149 129.427 L432.086 87.572 L426.888 87.572 L426.888 82.979 L447.898 82.979 L447.898 87.572 L440.597 87.572 L453.453 118.991 L466.296 87.572 L459.462 87.572 L459.462 82.979 L476.608 82.979 L476.608 87.572 L471.493 87.572 L450.566 138.969 Q448.421 144.304 445.794 146.257 Q443.182 148.209 438.411 148.209 Q436.389 148.209 434.258 147.866 Q432.141 147.522 429.982 146.876 L429.982 138.158 L434.024 138.158 Q434.286 141.073 435.509 142.338 Q436.733 143.617 439.304 143.617 Q441.669 143.617 443.113 142.297 Q444.557 140.991 446.138 137.031 Z M481.718 128.657 L481.718 124.106 L489.885 124.106 L489.885 69.106 L481.250 69.106 L481.250 64.499 L499.937 64.499 L522.459 110.177 L544.968 64.499 L562.499 64.499 L562.499 69.106 L553.947 69.106 L553.947 124.106 L562.155 124.106 L562.155 128.657 L537.062 128.657 L537.062 124.106 L545.229 124.106 L545.229 74.509 L523.229 119.252 L517.165 119.252 L495.165 74.509 L495.165 124.106 L503.333 124.106 L503.333 128.657 L481.718 128.657 Z M601.991 114.302 L601.991 104.636 L591.802 104.636 Q585.917 104.636 583.030 107.179 Q580.156 109.709 580.156 114.948 Q580.156 119.719 583.071 122.511 Q586.000 125.302 590.991 125.302 Q595.927 125.302 598.952 122.249 Q601.991 119.197 601.991 114.302 Z M609.897 100.126 L609.897 124.106 L616.937 124.106 L616.937 128.657 L601.991 128.657 L601.991 123.721 Q599.365 126.897 595.927 128.409 Q592.490 129.908 587.897 129.908 Q580.293 129.908 575.825 125.866 Q571.356 121.823 571.356 114.948 Q571.356 107.853 576.471 103.948 Q581.586 100.043 590.908 100.043 L601.991 100.043 L601.991 96.908 Q601.991 91.697 598.828 88.851 Q595.680 85.991 589.960 85.991 Q585.230 85.991 582.438 88.136 Q579.647 90.281 578.960 94.502 L574.876 94.502 L574.876 85.262 Q579.001 83.502 582.892 82.622 Q586.783 81.728 590.468 81.728 Q599.970 81.728 604.933 86.444 Q609.897 91.147 609.897 100.126 Z M661.496 82.897 L661.496 94.323 L656.944 94.323 Q656.738 90.927 655.061 89.249 Q653.383 87.572 650.152 87.572 Q644.308 87.572 641.187 91.614 Q638.079 95.657 638.079 103.219 L638.079 124.106 L647.237 124.106 L647.237 128.657 L623.051 128.657 L623.051 124.106 L630.173 124.106 L630.173 87.489 L622.611 87.489 L622.611 82.979 L638.079 82.979 L638.079 91.106 Q640.403 86.334 644.047 84.038 Q647.704 81.728 652.957 81.728 Q654.882 81.728 657.013 82.031 Q659.144 82.333 661.496 82.897 Z M671.002 87.572 L664.031 87.572 L664.031 82.979 L671.002 82.979 L671.002 68.803 L678.950 68.803 L678.950 82.979 L693.813 82.979 L693.813 87.572 L678.950 87.572 L678.950 116.584 Q678.950 122.387 680.063 124.023 Q681.177 125.646 684.188 125.646 Q687.282 125.646 688.698 123.831 Q690.115 122.002 690.211 117.918 L696.178 117.918 Q695.835 124.147 692.782 127.034 Q689.730 129.908 683.501 129.908 Q676.667 129.908 673.835 126.883 Q671.002 123.844 671.002 116.584 L671.002 87.572 Z"/></g>
<g fill="#B08D57"><path d="M290.923 162.337 L290.923 167.267 L293.156 167.267 Q294.396 167.267 295.071 166.626 Q295.749 165.984 295.749 164.798 Q295.749 163.619 295.071 162.978 Q294.396 162.337 293.156 162.337 L290.923 162.337 Z M289.148 160.877 L293.156 160.877 Q295.364 160.877 296.492 161.875 Q297.622 162.874 297.622 164.798 Q297.622 166.741 296.492 167.734 Q295.364 168.727 293.156 168.727 L290.923 168.727 L290.923 174.000 L289.148 174.000 L289.148 160.877 Z M306.846 167.846 Q307.417 168.040 307.957 168.673 Q308.497 169.306 309.043 170.414 L310.846 174.000 L308.936 174.000 L307.260 170.633 Q306.607 169.314 305.997 168.884 Q305.387 168.454 304.332 168.454 L302.397 168.454 L302.397 174.000 L300.622 174.000 L300.622 160.877 L304.630 160.877 Q306.880 160.877 307.988 161.819 Q309.096 162.758 309.096 164.657 Q309.096 165.897 308.520 166.716 Q307.943 167.531 306.846 167.846 Z M302.397 162.337 L302.397 166.994 L304.630 166.994 Q305.913 166.994 306.568 166.401 Q307.223 165.807 307.223 164.657 Q307.223 163.507 306.568 162.922 Q305.913 162.337 304.630 162.337 L302.397 162.337 Z M313.846 160.877 L315.620 160.877 L315.620 174.000 L313.846 174.000 L313.846 160.877 Z M323.630 174.000 L318.620 160.877 L320.474 160.877 L324.634 171.924 L328.799 160.877 L330.644 160.877 L325.643 174.000 L323.630 174.000 Z M339.657 162.626 L337.247 169.157 L342.073 169.157 L339.657 162.626 Z M338.653 160.877 L340.667 160.877 L345.667 174.000 L343.822 174.000 L342.627 170.633 L336.712 170.633 L335.517 174.000 L333.644 174.000 L338.653 160.877 Z M348.667 160.877 L359.768 160.877 L359.768 162.373 L355.111 162.373 L355.111 174.000 L353.328 174.000 L353.328 162.373 L348.667 162.373 L348.667 160.877 Z M362.768 160.877 L371.065 160.877 L371.065 162.373 L364.543 162.373 L364.543 166.257 L370.792 166.257 L370.792 167.751 L364.543 167.751 L364.543 172.507 L371.223 172.507 L371.223 174.000 L362.768 174.000 L362.768 160.877 Z M394.286 161.889 L394.286 163.760 Q393.389 162.924 392.374 162.514 Q391.358 162.100 390.216 162.100 Q387.966 162.100 386.771 163.476 Q385.576 164.851 385.576 167.452 Q385.576 170.046 386.771 171.421 Q387.966 172.796 390.216 172.796 Q391.358 172.796 392.374 172.383 Q393.389 171.969 394.286 171.134 L394.286 172.990 Q393.355 173.623 392.312 173.941 Q391.271 174.256 390.112 174.256 Q387.131 174.256 385.415 172.433 Q383.703 170.608 383.703 167.452 Q383.703 164.288 385.415 162.466 Q387.131 160.641 390.112 160.641 Q391.288 160.641 392.329 160.953 Q393.372 161.265 394.286 161.889 Z M403.299 162.626 L400.889 169.157 L405.715 169.157 L403.299 162.626 Z M402.295 160.877 L404.309 160.877 L409.310 174.000 L407.465 174.000 L406.269 170.633 L400.355 170.633 L399.159 174.000 L397.286 174.000 L402.295 160.877 Z M420.755 161.307 L420.755 163.040 Q419.746 162.556 418.849 162.320 Q417.951 162.081 417.116 162.081 Q415.668 162.081 414.880 162.643 Q414.093 163.206 414.093 164.243 Q414.093 165.115 414.616 165.560 Q415.139 166.001 416.599 166.274 L417.670 166.493 Q419.656 166.873 420.601 167.827 Q421.546 168.780 421.546 170.377 Q421.546 172.287 420.266 173.272 Q418.989 174.256 416.520 174.256 Q415.589 174.256 414.537 174.045 Q413.488 173.834 412.363 173.421 L412.363 171.593 Q413.443 172.197 414.481 172.507 Q415.519 172.813 416.520 172.813 Q418.039 172.813 418.865 172.217 Q419.692 171.618 419.692 170.510 Q419.692 169.545 419.099 168.999 Q418.505 168.454 417.153 168.181 L416.070 167.970 Q414.084 167.576 413.195 166.732 Q412.310 165.889 412.310 164.384 Q412.310 162.643 413.536 161.642 Q414.762 160.641 416.914 160.641 Q417.839 160.641 418.795 160.809 Q419.754 160.975 420.755 161.307 Z M424.546 160.877 L426.320 160.877 L426.320 166.423 L432.210 160.877 L434.496 160.877 L427.983 166.994 L434.960 174.000 L432.623 174.000 L426.320 167.680 L426.320 174.000 L424.546 174.000 L424.546 160.877 Z M446.406 161.307 L446.406 163.040 Q445.397 162.556 444.500 162.320 Q443.602 162.081 442.767 162.081 Q441.319 162.081 440.531 162.643 Q439.744 163.206 439.744 164.243 Q439.744 165.115 440.267 165.560 Q440.790 166.001 442.250 166.274 L443.321 166.493 Q445.307 166.873 446.252 167.827 Q447.197 168.780 447.197 170.377 Q447.197 172.287 445.917 173.272 Q444.640 174.256 442.171 174.256 Q441.240 174.256 440.188 174.045 Q439.139 173.834 438.014 173.421 L438.014 171.593 Q439.094 172.197 440.132 172.507 Q441.170 172.813 442.171 172.813 Q443.690 172.813 444.516 172.217 Q445.343 171.618 445.343 170.510 Q445.343 169.545 444.750 168.999 Q444.156 168.454 442.804 168.181 L441.721 167.970 Q439.735 167.576 438.846 166.732 Q437.960 165.889 437.960 164.384 Q437.960 162.643 439.187 161.642 Q440.413 160.641 442.565 160.641 Q443.490 160.641 444.446 160.809 Q445.405 160.975 446.406 161.307 Z M450.197 171.767 L452.053 171.767 L452.053 174.000 L450.197 174.000 L450.197 171.767 Z M475.116 161.889 L475.116 163.760 Q474.219 162.924 473.204 162.514 Q472.189 162.100 471.047 162.100 Q468.797 162.100 467.601 163.476 Q466.406 164.851 466.406 167.452 Q466.406 170.046 467.601 171.421 Q468.797 172.796 471.047 172.796 Q472.189 172.796 473.204 172.383 Q474.219 171.969 475.116 171.134 L475.116 172.990 Q474.185 173.623 473.142 173.941 Q472.101 174.256 470.943 174.256 Q467.961 174.256 466.246 172.433 Q464.533 170.608 464.533 167.452 Q464.533 164.288 466.246 162.466 Q467.961 160.641 470.943 160.641 Q472.118 160.641 473.159 160.953 Q474.202 161.265 475.116 161.889 Z M478.116 160.877 L479.902 160.877 L479.902 168.850 Q479.902 170.960 480.665 171.888 Q481.430 172.813 483.145 172.813 Q484.850 172.813 485.615 171.888 Q486.380 170.960 486.380 168.850 L486.380 160.877 L488.163 160.877 L488.163 169.070 Q488.163 171.635 486.891 172.945 Q485.623 174.256 483.145 174.256 Q480.656 174.256 479.385 172.945 Q478.116 171.635 478.116 169.070 L478.116 160.877 Z M497.387 167.846 Q497.958 168.040 498.498 168.673 Q499.038 169.306 499.583 170.414 L501.386 174.000 L499.476 174.000 L497.800 170.633 Q497.148 169.314 496.537 168.884 Q495.927 168.454 494.872 168.454 L492.937 168.454 L492.937 174.000 L491.163 174.000 L491.163 160.877 L495.170 160.877 Q497.420 160.877 498.529 161.819 Q499.637 162.758 499.637 164.657 Q499.637 165.897 499.060 166.716 Q498.484 167.531 497.387 167.846 Z M492.937 162.337 L492.937 166.994 L495.170 166.994 Q496.453 166.994 497.108 166.401 Q497.764 165.807 497.764 164.657 Q497.764 163.507 497.108 162.922 Q496.453 162.337 495.170 162.337 L492.937 162.337 Z M510.399 162.626 L507.989 169.157 L512.815 169.157 L510.399 162.626 Z M509.395 160.877 L511.409 160.877 L516.410 174.000 L514.565 174.000 L513.369 170.633 L507.455 170.633 L506.259 174.000 L504.386 174.000 L509.395 160.877 Z M519.410 160.877 L530.510 160.877 L530.510 162.373 L525.853 162.373 L525.853 174.000 L524.070 174.000 L524.070 162.373 L519.410 162.373 L519.410 160.877 Z M533.510 160.877 L541.807 160.877 L541.807 162.373 L535.285 162.373 L535.285 166.257 L541.535 166.257 L541.535 167.751 L535.285 167.751 L535.285 172.507 L541.965 172.507 L541.965 174.000 L533.510 174.000 L533.510 160.877 Z M546.740 162.337 L546.740 172.540 L548.885 172.540 Q551.602 172.540 552.862 171.311 Q554.122 170.079 554.122 167.424 Q554.122 164.789 552.862 163.563 Q551.602 162.337 548.885 162.337 L546.740 162.337 Z M544.965 160.877 L548.613 160.877 Q552.426 160.877 554.210 162.463 Q555.995 164.049 555.995 167.424 Q555.995 170.819 554.201 172.411 Q552.410 174.000 548.613 174.000 L544.965 174.000 L544.965 160.877 Z M558.995 171.767 L560.852 171.767 L560.852 174.000 L558.995 174.000 L558.995 171.767 Z"/></g>
<path d="M176 170 H235 M615 170 H674" fill="none" stroke="#B08D57" stroke-width="2"/>
</g>
</svg>