<svg xmlns="http://www.w3.org/2000/svg" viewBox="0 0 850 520" role="img" aria-label="WhiskyMart logo stacked">
<title>WhiskyMart Logo Stacked</title>
<g id="logo">
<g transform="translate(297,20)"><g color="#B08D57" fill="none" stroke="currentColor">
  <circle cx="128" cy="128" r="108" stroke-width="4"/>
  <circle cx="128" cy="128" r="96" stroke-width="1.8"/>
</g>
<g fill="#B08D57">
  <path d="M145.809 134.246 L140.049 134.246 L128.023 91.564 L115.996 134.246 L110.236 134.246 L96.489 85.523 L91.280 85.523 L91.280 81.754 L110.439 81.754 L110.439 85.523 L103.903 85.523 L114.838 124.301 L126.796 81.754 L132.489 81.754 L144.650 124.751 L155.653 85.523 L149.611 85.523 L149.611 81.754 L164.720 81.754 L164.720 85.523 L159.556 85.523 L145.809 134.246 Z"/>
  <path d="M98.795 187.330 L98.795 184.020 L104.735 184.020 L104.735 144.020 L98.455 144.020 L98.455 140.670 L112.045 140.670 L128.425 173.890 L144.795 140.670 L157.545 140.670 L157.545 144.020 L151.325 144.020 L151.325 184.020 L157.295 184.020 L157.295 187.330 L139.045 187.330 L139.045 184.020 L144.985 184.020 L144.985 147.950 L128.985 180.490 L124.575 180.490 L108.575 147.950 L108.575 184.020 L114.515 184.020 L114.515 187.330 L98.795 187.330 Z"/>
  <path d="M104.739 199.438 L108.887 199.438 L108.887 200.187 L105.626 200.187 L105.626 202.129 L108.751 202.129 L108.751 202.875 L105.626 202.875 L105.626 205.253 L108.966 205.253 L108.966 206.000 L104.739 206.000 L104.739 199.438 Z M114.189 199.654 L114.189 200.520 Q113.684 200.278 113.235 200.160 Q112.787 200.040 112.369 200.040 Q111.645 200.040 111.251 200.322 Q110.857 200.603 110.857 201.122 Q110.857 201.558 111.119 201.780 Q111.380 202.001 112.110 202.137 L112.646 202.247 Q113.639 202.437 114.111 202.913 Q114.584 203.390 114.584 204.189 Q114.584 205.144 113.944 205.636 Q113.306 206.128 112.071 206.128 Q111.605 206.128 111.080 206.023 Q110.555 205.917 109.993 205.710 L109.993 204.796 Q110.533 205.099 111.051 205.253 Q111.570 205.407 112.071 205.407 Q112.830 205.407 113.244 205.108 Q113.657 204.809 113.657 204.255 Q113.657 203.773 113.360 203.500 Q113.064 203.227 112.387 203.090 L111.846 202.985 Q110.853 202.788 110.409 202.366 Q109.966 201.944 109.966 201.192 Q109.966 200.322 110.579 199.821 Q111.192 199.320 112.268 199.320 Q112.730 199.320 113.209 199.405 Q113.688 199.488 114.189 199.654 Z M115.584 199.438 L121.134 199.438 L121.134 200.187 L118.806 200.187 L118.806 206.000 L117.914 206.000 L117.914 200.187 L115.584 200.187 L115.584 199.438 Z M131.682 205.253 L134.780 205.253 L134.780 206.000 L130.614 206.000 L130.614 205.253 Q131.119 204.730 131.991 203.850 Q132.864 202.968 133.088 202.712 Q133.514 202.234 133.683 201.902 Q133.853 201.570 133.853 201.250 Q133.853 200.727 133.486 200.398 Q133.119 200.067 132.530 200.067 Q132.112 200.067 131.648 200.212 Q131.185 200.357 130.658 200.652 L130.658 199.755 Q131.194 199.540 131.659 199.430 Q132.126 199.320 132.513 199.320 Q133.532 199.320 134.138 199.831 Q134.745 200.340 134.745 201.192 Q134.745 201.597 134.593 201.960 Q134.442 202.321 134.041 202.813 Q133.932 202.941 133.343 203.550 Q132.755 204.159 131.682 205.253 Z M138.047 200.023 Q137.362 200.023 137.016 200.698 Q136.671 201.372 136.671 202.726 Q136.671 204.075 137.016 204.750 Q137.362 205.425 138.047 205.425 Q138.737 205.425 139.082 204.750 Q139.428 204.075 139.428 202.726 Q139.428 201.372 139.082 200.698 Q138.737 200.023 138.047 200.023 Z M138.047 199.320 Q139.150 199.320 139.733 200.194 Q140.315 201.065 140.315 202.726 Q140.315 204.383 139.733 205.256 Q139.150 206.128 138.047 206.128 Q136.944 206.128 136.362 205.256 Q135.780 204.383 135.780 202.726 Q135.780 201.065 136.362 200.194 Q136.944 199.320 138.047 199.320 Z M142.382 205.253 L145.480 205.253 L145.480 206.000 L141.315 206.000 L141.315 205.253 Q141.820 204.730 142.692 203.850 Q143.565 202.968 143.788 202.712 Q144.215 202.234 144.383 201.902 Q144.553 201.570 144.553 201.250 Q144.553 200.727 144.186 200.398 Q143.819 200.067 143.230 200.067 Q142.812 200.067 142.348 200.212 Q141.886 200.357 141.358 200.652 L141.358 199.755 Q141.894 199.540 142.360 199.430 Q142.827 199.320 143.213 199.320 Q144.233 199.320 144.839 199.831 Q145.445 200.340 145.445 201.192 Q145.445 201.597 145.293 201.960 Q145.143 202.321 144.742 202.813 Q144.632 202.941 144.043 203.550 Q143.455 204.159 142.382 205.253 Z M149.442 200.212 L147.200 203.715 L149.442 203.715 L149.442 200.212 Z M149.208 199.438 L150.325 199.438 L150.325 203.715 L151.261 203.715 L151.261 204.453 L150.325 204.453 L150.325 206.000 L149.442 206.000 L149.442 204.453 L146.480 204.453 L146.480 203.597 L149.208 199.438 Z"/>
</g>
<g color="#B08D57"><g fill="none" stroke="currentColor" stroke-width="3" stroke-linecap="round" stroke-linejoin="round">
  <path d="M111 34 C118 28 138 28 145 34 L145 57 C138 63 118 63 111 57 Z"/>
  <path d="M116 34 C113 42 113 49 116 57"/>
  <path d="M140 34 C143 42 143 49 140 57"/>
  <path d="M111 42 H145 M111 50 H145"/>
  <path d="M128 31 V60"/>
</g></g>
<g fill="#B08D57"><circle cx="128" cy="190" r="4"/><rect x="126.2" y="194" width="3.6" height="10"/><rect x="126.2" y="201" width="8" height="3"/><rect x="126.2" y="196" width="6" height="3"/></g>
<g fill="#B08D57"><circle cx="51" cy="128" r="3"/><circle cx="205" cy="128" r="3"/></g></g>
<g fill="#F2EDE2"><path d="M220.468 383.657 L213.428 383.657 L198.729 331.489 L184.030 383.657 L176.990 383.657 L160.188 324.106 L153.822 324.106 L153.822 319.499 L177.238 319.499 L177.238 324.106 L169.249 324.106 L182.614 371.502 L197.230 319.499 L204.188 319.499 L219.052 372.052 L232.499 324.106 L225.115 324.106 L225.115 319.499 L243.582 319.499 L243.582 324.106 L237.270 324.106 L220.468 383.657 Z M247.461 383.657 L247.461 379.106 L254.583 379.106 L254.583 321.356 L247.021 321.356 L247.021 316.791 L262.490 316.791 L262.490 346.106 Q264.690 341.458 268.182 339.093 Q271.688 336.728 276.336 336.728 Q283.898 336.728 287.460 341.073 Q291.021 345.418 291.021 354.603 L291.021 379.106 L298.075 379.106 L298.075 383.657 L276.240 383.657 L276.240 379.106 L283.073 379.106 L283.073 357.106 Q283.073 348.718 281.025 345.652 Q278.990 342.572 273.751 342.572 Q268.251 342.572 265.363 346.573 Q262.490 350.574 262.490 358.219 L262.490 379.106 L269.365 379.106 L269.365 383.657 L247.461 383.657 Z M309.073 323.803 Q309.073 321.823 310.503 320.366 Q311.947 318.908 313.968 318.908 Q315.948 318.908 317.378 320.366 Q318.822 321.823 318.822 323.803 Q318.822 325.824 317.405 327.241 Q315.989 328.657 313.968 328.657 Q311.947 328.657 310.503 327.241 Q309.073 325.824 309.073 323.803 Z M319.165 379.106 L326.645 379.106 L326.645 383.657 L303.697 383.657 L303.697 379.106 L311.259 379.106 L311.259 342.572 L303.697 342.572 L303.697 337.979 L319.165 337.979 L319.165 379.106 Z M333.601 381.127 L333.601 370.471 L338.166 370.471 Q338.331 375.572 341.356 378.116 Q344.395 380.646 350.321 380.646 Q355.656 380.646 358.447 378.652 Q361.239 376.658 361.239 372.822 Q361.239 369.824 359.190 367.982 Q357.155 366.126 350.582 364.022 L344.862 362.083 Q338.977 360.199 336.337 357.367 Q333.697 354.521 333.697 350.134 Q333.697 343.864 338.290 340.303 Q342.882 336.728 351.009 336.728 Q354.625 336.728 358.612 337.677 Q362.614 338.626 366.862 340.427 L366.862 350.396 L362.311 350.396 Q362.132 345.968 359.204 343.479 Q356.289 340.991 351.270 340.991 Q346.279 340.991 343.721 342.751 Q341.164 344.511 341.164 348.031 Q341.164 350.918 343.102 352.664 Q345.041 354.397 350.844 356.198 L357.114 358.137 Q363.604 360.158 366.450 363.183 Q369.310 366.208 369.310 370.979 Q369.310 377.469 364.346 381.196 Q359.382 384.908 350.665 384.908 Q346.237 384.908 342.030 383.959 Q337.822 383.011 333.601 381.127 Z M399.001 383.657 L376.836 383.657 L376.836 379.106 L383.973 379.106 L383.973 321.356 L376.355 321.356 L376.355 316.791 L391.879 316.791 L391.879 360.323 L411.129 342.572 L404.543 342.572 L404.543 337.979 L425.223 337.979 L425.223 342.572 L417.399 342.572 L403.814 355.126 L421.180 379.106 L427.753 379.106 L427.753 383.657 L405.230 383.657 L405.230 379.106 L411.761 379.106 L398.108 360.323 L391.879 366.126 L391.879 379.106 L399.001 379.106 L399.001 383.657 Z M446.138 392.031 L449.149 384.427 L432.086 342.572 L426.888 342.572 L426.888 337.979 L447.898 337.979 L447.898 342.572 L440.597 342.572 L453.453 373.991 L466.296 342.572 L459.462 342.572 L459.462 337.979 L476.608 337.979 L476.608 342.572 L471.493 342.572 L450.566 393.969 Q448.421 399.304 445.794 401.257 Q443.182 403.209 438.411 403.209 Q436.389 403.209 434.258 402.866 Q432.141 402.522 429.982 401.876 L429.982 393.158 L434.024 393.158 Q434.286 396.073 435.509 397.338 Q436.733 398.617 439.304 398.617 Q441.669 398.617 443.113 397.297 Q444.557 395.991 446.138 392.031 Z M481.718 383.657 L481.718 379.106 L489.885 379.106 L489.885 324.106 L481.250 324.106 L481.250 319.499 L499.937 319.499 L522.459 365.177 L544.968 319.499 L562.499 319.499 L562.499 324.106 L553.947 324.106 L553.947 379.106 L562.155 379.106 L562.155 383.657 L537.062 383.657 L537.062 379.106 L545.229 379.106 L545.229 329.509 L523.229 374.252 L517.165 374.252 L495.165 329.509 L495.165 379.106 L503.333 379.106 L503.333 383.657 L481.718 383.657 Z M601.991 369.302 L601.991 359.636 L591.802 359.636 Q585.917 359.636 583.030 362.179 Q580.156 364.709 580.156 369.948 Q580.156 374.719 583.071 377.511 Q586.000 380.302 590.991 380.302 Q595.927 380.302 598.952 377.249 Q601.991 374.197 601.991 369.302 Z M609.897 355.126 L609.897 379.106 L616.937 379.106 L616.937 383.657 L601.991 383.657 L601.991 378.721 Q599.365 381.897 595.927 383.409 Q592.490 384.908 587.897 384.908 Q580.293 384.908 575.825 380.866 Q571.356 376.823 571.356 369.948 Q571.356 362.853 576.471 358.948 Q581.586 355.043 590.908 355.043 L601.991 355.043 L601.991 351.908 Q601.991 346.697 598.828 343.851 Q595.680 340.991 589.960 340.991 Q585.230 340.991 582.438 343.136 Q579.647 345.281 578.960 349.502 L574.876 349.502 L574.876 340.262 Q579.001 338.502 582.892 337.622 Q586.783 336.728 590.468 336.728 Q599.970 336.728 604.933 341.444 Q609.897 346.147 609.897 355.126 Z M661.496 337.897 L661.496 349.323 L656.944 349.323 Q656.738 345.927 655.061 344.249 Q653.383 342.572 650.152 342.572 Q644.308 342.572 641.187 346.614 Q638.079 350.657 638.079 358.219 L638.079 379.106 L647.237 379.106 L647.237 383.657 L623.051 383.657 L623.051 379.106 L630.173 379.106 L630.173 342.489 L622.611 342.489 L622.611 337.979 L638.079 337.979 L638.079 346.106 Q640.403 341.334 644.047 339.038 Q647.704 336.728 652.957 336.728 Q654.882 336.728 657.013 337.031 Q659.144 337.333 661.496 337.897 Z M671.002 342.572 L664.031 342.572 L664.031 337.979 L671.002 337.979 L671.002 323.803 L678.950 323.803 L678.950 337.979 L693.813 337.979 L693.813 342.572 L678.950 342.572 L678.950 371.584 Q678.950 377.387 680.063 379.023 Q681.177 380.646 684.188 380.646 Q687.282 380.646 688.698 378.831 Q690.115 377.002 690.211 372.918 L696.178 372.918 Q695.835 379.147 692.782 382.034 Q689.730 384.908 683.501 384.908 Q676.667 384.908 673.835 381.883 Q671.002 378.844 671.002 371.584 L671.002 342.572 Z"/></g>
<g fill="#B08D57"><path d="M290.923 420.337 L290.923 425.267 L293.156 425.267 Q294.396 425.267 295.071 424.626 Q295.749 423.984 295.749 422.798 Q295.749 421.619 295.071 420.978 Q294.396 420.337 293.156 420.337 L290.923 420.337 Z M289.148 418.877 L293.156 418.877 Q295.364 418.877 296.492 419.875 Q297.622 420.874 297.622 422.798 Q297.622 424.741 296.492 425.734 Q295.364 426.727 293.156 426.727 L290.923 426.727 L290.923 432.000 L289.148 432.000 L289.148 418.877 Z M306.846 425.846 Q307.417 426.040 307.957 426.673 Q308.497 427.306 309.043 428.414 L310.846 432.000 L308.936 432.000 L307.260 428.633 Q306.607 427.314 305.997 426.884 Q305.387 426.454 304.332 426.454 L302.397 426.454 L302.397 432.000 L300.622 432.000 L300.622 418.877 L304.630 418.877 Q306.880 418.877 307.988 419.819 Q309.096 420.758 309.096 422.657 Q309.096 423.897 308.520 424.716 Q307.943 425.531 306.846 425.846 Z M302.397 420.337 L302.397 424.994 L304.630 424.994 Q305.913 424.994 306.568 424.401 Q307.223 423.807 307.223 422.657 Q307.223 421.507 306.568 420.922 Q305.913 420.337 304.630 420.337 L302.397 420.337 Z M313.846 418.877 L315.620 418.877 L315.620 432.000 L313.846 432.000 L313.846 418.877 Z M323.630 432.000 L318.620 418.877 L320.474 418.877 L324.634 429.924 L328.799 418.877 L330.644 418.877 L325.643 432.000 L323.630 432.000 Z M339.657 420.626 L337.247 427.157 L342.073 427.157 L339.657 420.626 Z M338.653 418.877 L340.667 418.877 L345.667 432.000 L343.822 432.000 L342.627 428.633 L336.712 428.633 L335.517 432.000 L333.644 432.000 L338.653 418.877 Z M348.667 418.877 L359.768 418.877 L359.768 420.373 L355.111 420.373 L355.111 432.000 L353.328 432.000 L353.328 420.373 L348.667 420.373 L348.667 418.877 Z M362.768 418.877 L371.065 418.877 L371.065 420.373 L364.543 420.373 L364.543 424.257 L370.792 424.257 L370.792 425.751 L364.543 425.751 L364.543 430.507 L371.223 430.507 L371.223 432.000 L362.768 432.000 L362.768 418.877 Z M394.286 419.889 L394.286 421.760 Q393.389 420.924 392.374 420.514 Q391.358 420.100 390.216 420.100 Q387.966 420.100 386.771 421.476 Q385.576 422.851 385.576 425.452 Q385.576 428.046 386.771 429.421 Q387.966 430.796 390.216 430.796 Q391.358 430.796 392.374 430.383 Q393.389 429.969 394.286 429.134 L394.286 430.990 Q393.355 431.623 392.312 431.941 Q391.271 432.256 390.112 432.256 Q387.131 432.256 385.415 430.433 Q383.703 428.608 383.703 425.452 Q383.703 422.288 385.415 420.466 Q387.131 418.641 390.112 418.641 Q391.288 418.641 392.329 418.953 Q393.372 419.265 394.286 419.889 Z M403.299 420.626 L400.889 427.157 L405.715 427.157 L403.299 420.626 Z M402.295 418.877 L404.309 418.877 L409.310 432.000 L407.465 432.000 L406.269 428.633 L400.355 428.633 L399.159 432.000 L397.286 432.000 L402.295 418.877 Z M420.755 419.307 L420.755 421.040 Q419.746 420.556 418.849 420.320 Q417.951 420.081 417.116 420.081 Q415.668 420.081 414.880 420.643 Q414.093 421.206 414.093 422.243 Q414.093 423.115 414.616 423.560 Q415.139 424.001 416.599 424.274 L417.670 424.493 Q419.656 424.873 420.601 425.827 Q421.546 426.780 421.546 428.377 Q421.546 430.287 420.266 431.272 Q418.989 432.256 416.520 432.256 Q415.589 432.256 414.537 432.045 Q413.488 431.834 412.363 431.421 L412.363 429.592 Q413.443 430.197 414.481 430.507 Q415.519 430.813 416.520 430.813 Q418.039 430.813 418.865 430.217 Q419.692 429.618 419.692 428.510 Q419.692 427.545 419.099 426.999 Q418.505 426.454 417.153 426.181 L416.070 425.970 Q414.084 425.576 413.195 424.733 Q412.310 423.889 412.310 422.384 Q412.310 420.643 413.536 419.642 Q414.762 418.641 416.914 418.641 Q417.839 418.641 418.795 418.809 Q419.754 418.975 420.755 419.307 Z M424.546 418.877 L426.320 418.877 L426.320 424.423 L432.210 418.877 L434.496 418.877 L427.983 424.994 L434.960 432.000 L432.623 432.000 L426.320 425.680 L426.320 432.000 L424.546 432.000 L424.546 418.877 Z M446.406 419.307 L446.406 421.040 Q445.397 420.556 444.500 420.320 Q443.602 420.081 442.767 420.081 Q441.319 420.081 440.531 420.643 Q439.744 421.206 439.744 422.243 Q439.744 423.115 440.267 423.560 Q440.790 424.001 442.250 424.274 L443.321 424.493 Q445.307 424.873 446.252 425.827 Q447.197 426.780 447.197 428.377 Q447.197 430.287 445.917 431.272 Q444.640 432.256 442.171 432.256 Q441.240 432.256 440.188 432.045 Q439.139 431.834 438.014 431.421 L438.014 429.592 Q439.094 430.197 440.132 430.507 Q441.170 430.813 442.171 430.813 Q443.690 430.813 444.516 430.217 Q445.343 429.618 445.343 428.510 Q445.343 427.545 444.750 426.999 Q444.156 426.454 442.804 426.181 L441.721 425.970 Q439.735 425.576 438.846 424.733 Q437.960 423.889 437.960 422.384 Q437.960 420.643 439.187 419.642 Q440.413 418.641 442.565 418.641 Q443.490 418.641 444.446 418.809 Q445.405 418.975 446.406 419.307 Z M450.197 429.767 L452.053 429.767 L452.053 432.000 L450.197 432.000 L450.197 429.767 Z M475.116 419.889 L475.116 421.760 Q474.219 420.924 473.204 420.514 Q472.189 420.100 471.047 420.100 Q468.797 420.100 467.601 421.476 Q466.406 422.851 466.406 425.452 Q466.406 428.046 467.601 429.421 Q468.797 430.796 471.047 430.796 Q472.189 430.796 473.204 430.383 Q474.219 429.969 475.116 429.134 L475.116 430.990 Q474.185 431.623 473.142 431.941 Q472.101 432.256 470.943 432.256 Q467.961 432.256 466.246 430.433 Q464.533 428.608 464.533 425.452 Q464.533 422.288 466.246 420.466 Q467.961 418.641 470.943 418.641 Q472.118 418.641 473.159 418.953 Q474.202 419.265 475.116 419.889 Z M478.116 418.877 L479.902 418.877 L479.902 426.850 Q479.902 428.960 480.665 429.888 Q481.430 430.813 483.145 430.813 Q484.850 430.813 485.615 429.888 Q486.380 428.960 486.380 426.850 L486.380 418.877 L488.163 418.877 L488.163 427.070 Q488.163 429.635 486.891 430.945 Q485.623 432.256 483.145 432.256 Q480.656 432.256 479.385 430.945 Q478.116 429.635 478.116 427.070 L478.116 418.877 Z M497.387 425.846 Q497.958 426.040 498.498 426.673 Q499.038 427.306 499.583 428.414 L501.386 432.000 L499.476 432.000 L497.800 428.633 Q497.148 427.314 496.537 426.884 Q495.927 426.454 494.872 426.454 L492.937 426.454 L492.937 432.000 L491.163 432.000 L491.163 418.877 L495.170 418.877 Q497.420 418.877 498.529 419.819 Q499.637 420.758 499.637 422.657 Q499.637 423.897 499.060 424.716 Q498.484 425.531 497.387 425.846 Z M492.937 420.337 L492.937 424.994 L495.170 424.994 Q496.453 424.994 497.108 424.401 Q497.764 423.807 497.764 422.657 Q497.764 421.507 497.108 420.922 Q496.453 420.337 495.170 420.337 L492.937 420.337 Z M510.399 420.626 L507.989 427.157 L512.815 427.157 L510.399 420.626 Z M509.395 418.877 L511.409 418.877 L516.410 432.000 L514.565 432.000 L513.369 428.633 L507.455 428.633 L506.259 432.000 L504.386 432.000 L509.395 418.877 Z M519.410 418.877 L530.510 418.877 L530.510 420.373 L525.853 420.373 L525.853 432.000 L524.070 432.000 L524.070 420.373 L519.410 420.373 L519.410 418.877 Z M533.510 418.877 L541.807 418.877 L541.807 420.373 L535.285 420.373 L535.285 424.257 L541.535 424.257 L541.535 425.751 L535.285 425.751 L535.285 430.507 L541.965 430.507 L541.965 432.000 L533.510 432.000 L533.510 418.877 Z M546.740 420.337 L546.740 430.540 L548.885 430.540 Q551.602 430.540 552.862 429.311 Q554.122 428.079 554.122 425.424 Q554.122 422.789 552.862 421.563 Q551.602 420.337 548.885 420.337 L546.740 420.337 Z M544.965 418.877 L548.613 418.877 Q552.426 418.877 554.210 420.463 Q555.995 422.049 555.995 425.424 Q555.995 428.819 554.201 430.411 Q552.410 432.000 548.613 432.000 L544.965 432.000 L544.965 418.877 Z M558.995 429.767 L560.852 429.767 L560.852 432.000 L558.995 432.000 L558.995 429.767 Z"/></g>
<path d="M176 428 H235 M615 428 H674" fill="none" stroke="#B08D57" stroke-width="2"/>
</g>
</svg>