<svg xmlns="http://www.w3.org/2000/svg" viewBox="0 0 1020 260" role="img" aria-label="WhiskyMart logo horizontal one color">
<title>WhiskyMart Logo Horizontal One Color</title>
<g id="logo" color="#171310" fill="#171310" stroke="#171310">
<g transform="translate(0,2) scale(0.96)"><g color="#171310" fill="none" stroke="#171310">
  <circle cx="128" cy="128" r="108" stroke-width="4"/>
  <circle cx="128" cy="128" r="96" stroke-width="1.8"/>
</g>
<g fill="#171310">
  <path d="M145.809 134.246 L140.049 134.246 L128.023 91.564 L115.996 134.246 L110.236 134.246 L96.489 85.523 L91.280 85.523 L91.280 81.754 L110.439 81.754 L110.439 85.523 L103.903 85.523 L114.838 124.301 L126.796 81.754 L132.489 81.754 L144.650 124.751 L155.653 85.523 L149.611 85.523 L149.611 81.754 L164.720 81.754 L164.720 85.523 L159.556 85.523 L145.809 134.246 Z"/>
  <path d="M98.795 187.330 L98.795 184.020 L104.735 184.020 L104.735 144.020 L98.455 144.020 L98.455 140.670 L112.045 140.670 L128.425 173.890 L144.795 140.670 L157.545 140.670 L157.545 144.020 L151.325 144.020 L151.325 184.020 L157.295 184.020 L157.295 187.330 L139.045 187.330 L139.045 184.020 L144.985 184.020 L144.985 147.950 L128.985 180.490 L124.575 180.490 L108.575 147.950 L108.575 184.020 L114.515 184.020 L114.515 187.330 L98.795 187.330 Z"/>
  <path d="M104.739 199.438 L108.887 199.438 L108.887 200.187 L105.626 200.187 L105.626 202.129 L108.751 202.129 L108.751 202.875 L105.626 202.875 L105.626 205.253 L108.966 205.253 L108.966 206.000 L104.739 206.000 L104.739 199.438 Z M114.189 199.654 L114.189 200.520 Q113.684 200.278 113.235 200.160 Q112.787 200.040 112.369 200.040 Q111.645 200.040 111.251 200.322 Q110.857 200.603 110.857 201.122 Q110.857 201.558 111.119 201.780 Q111.380 202.001 112.110 202.137 L112.646 202.247 Q113.639 202.437 114.111 202.913 Q114.584 203.390 114.584 204.189 Q114.584 205.144 113.944 205.636 Q113.306 206.128 112.071 206.128 Q111.605 206.128 111.080 206.023 Q110.555 205.917 109.993 205.710 L109.993 204.796 Q110.533 205.099 111.051 205.253 Q111.570 205.407 112.071 205.407 Q112.830 205.407 113.244 205.108 Q113.657 204.809 113.657 204.255 Q113.657 203.773 113.360 203.500 Q113.064 203.227 112.387 203.090 L111.846 202.985 Q110.853 202.788 110.409 202.366 Q109.966 201.944 109.966 201.192 Q109.966 200.322 110.579 199.821 Q111.192 199.320 112.268 199.320 Q112.730 199.320 113.209 199.405 Q113.688 199.488 114.189 199.654 Z M115.584 199.438 L121.134 199.438 L121.134 200.187 L118.806 200.187 L118.806 206.000 L117.914 206.000 L117.914 200.187 L115.584 200.187 L115.584 199.438 Z M131.682 205.253 L134.780 205.253 L134.780 206.000 L130.614 206.000 L130.614 205.253 Q131.119 204.730 131.991 203.850 Q132.864 202.968 133.088 202.712 Q133.514 202.234 133.683 201.902 Q133.853 201.570 133.853 201.250 Q133.853 200.727 133.486 200.398 Q133.119 200.067 132.530 200.067 Q132.112 200.067 131.648 200.212 Q131.185 200.357 130.658 200.652 L130.658 199.755 Q131.194 199.540 131.659 199.430 Q132.126 199.320 132.513 199.320 Q133.532 199.320 134.138 199.831 Q134.745 200.340 134.745 201.192 Q134.745 201.597 134.593 201.960 Q134.442 202.321 134.041 202.813 Q133.932 202.941 133.343 203.550 Q132.755 204.159 131.682 205.253 Z M138.047 200.023 Q137.362 200.023 137.016 200.698 Q136.671 201.372 136.671 202.726 Q136.671 204.075 137.016 204.750 Q137.362 205.425 138.047 205.425 Q138.737 205.425 139.082 204.750 Q139.428 204.075 139.428 202.726 Q139.428 201.372 139.082 200.698 Q138.737 200.023 138.047 200.023 Z M138.047 199.320 Q139.150 199.320 139.733 200.194 Q140.315 201.065 140.315 202.726 Q140.315 204.383 139.733 205.256 Q139.150 206.128 138.047 206.128 Q136.944 206.128 136.362 205.256 Q135.780 204.383 135.780 202.726 Q135.780 201.065 136.362 200.194 Q136.944 199.320 138.047 199.320 Z M142.382 205.253 L145.480 205.253 L145.480 206.000 L141.315 206.000 L141.315 205.253 Q141.820 204.730 142.692 203.850 Q143.565 202.968 143.788 202.712 Q144.215 202.234 144.383 201.902 Q144.553 201.570 144.553 201.250 Q144.553 200.727 144.186 200.398 Q143.819 200.067 143.230 200.067 Q142.812 200.067 142.348 200.212 Q141.886 200.357 141.358 200.652 L141.358 199.755 Q141.894 199.540 142.360 199.430 Q142.827 199.320 143.213 199.320 Q144.233 199.320 144.839 199.831 Q145.445 200.340 145.445 201.192 Q145.445 201.597 145.293 201.960 Q145.143 202.321 144.742 202.813 Q144.632 202.941 144.043 203.550 Q143.455 204.159 142.382 205.253 Z M149.442 200.212 L147.200 203.715 L149.442 203.715 L149.442 200.212 Z M149.208 199.438 L150.325 199.438 L150.325 203.715 L151.261 203.715 L151.261 204.453 L150.325 204.453 L150.325 206.000 L149.442 206.000 L149.442 204.453 L146.480 204.453 L146.480 203.597 L149.208 199.438 Z"/>
</g>
<g color="#171310"><g fill="none" stroke="#171310" stroke-width="3" stroke-linecap="round" stroke-linejoin="round">
  <path d="M111 34 C118 28 138 28 145 34 L145 57 C138 63 118 63 111 57 Z"/>
  <path d="M116 34 C113 42 113 49 116 57"/>
  <path d="M140 34 C143 42 143 49 140 57"/>
  <path d="M111 42 H145 M111 50 H145"/>
  <path d="M128 31 V60"/>
</g></g>
<g fill="#171310"><circle cx="128" cy="190" r="4"/><rect x="126.2" y="194" width="3.6" height="10"/><rect x="126.2" y="201" width="8" height="3"/><rect x="126.2" y="196" width="6" height="3"/></g>
<g fill="#171310"><circle cx="51" cy="128" r="3"/><circle cx="205" cy="128" r="3"/></g></g>
<g transform="translate(205,0)">
  <path d="M190.116 131.119 L183.236 131.119 L168.872 80.137 L154.507 131.119 L147.627 131.119 L131.206 72.921 L124.985 72.921 L124.985 68.420 L147.869 68.420 L147.869 72.921 L140.062 72.921 L153.123 119.240 L167.407 68.420 L174.206 68.420 L188.732 119.778 L201.874 72.921 L194.658 72.921 L194.658 68.420 L212.705 68.420 L212.705 72.921 L206.537 72.921 L190.116 131.119 Z M216.496 131.119 L216.496 126.671 L223.456 126.671 L223.456 70.234 L216.066 70.234 L216.066 65.773 L231.183 65.773 L231.183 94.421 Q233.333 89.880 236.746 87.568 Q240.173 85.257 244.715 85.257 Q252.105 85.257 255.586 89.503 Q259.066 93.750 259.066 102.726 L259.066 126.671 L265.959 126.671 L265.959 131.119 L244.621 131.119 L244.621 126.671 L251.299 126.671 L251.299 105.171 Q251.299 96.975 249.297 93.978 Q247.308 90.968 242.188 90.968 Q236.813 90.968 233.991 94.878 Q231.183 98.789 231.183 106.260 L231.183 126.671 L237.902 126.671 L237.902 131.119 L216.496 131.119 Z M276.708 72.626 Q276.708 70.691 278.105 69.266 Q279.516 67.842 281.491 67.842 Q283.426 67.842 284.824 69.266 Q286.235 70.691 286.235 72.626 Q286.235 74.601 284.851 75.985 Q283.467 77.369 281.491 77.369 Q279.516 77.369 278.105 75.985 Q276.708 74.601 276.708 72.626 Z M286.571 126.671 L293.881 126.671 L293.881 131.119 L271.454 131.119 L271.454 126.671 L278.844 126.671 L278.844 90.968 L271.454 90.968 L271.454 86.480 L286.571 86.480 L286.571 126.671 Z M300.678 128.647 L300.678 118.233 L305.140 118.233 Q305.301 123.218 308.257 125.704 Q311.227 128.176 317.018 128.176 Q322.232 128.176 324.960 126.228 Q327.688 124.280 327.688 120.530 Q327.688 117.601 325.686 115.800 Q323.697 113.986 317.274 111.930 L311.684 110.036 Q305.932 108.195 303.352 105.427 Q300.772 102.645 300.772 98.359 Q300.772 92.231 305.261 88.751 Q309.749 85.257 317.690 85.257 Q321.224 85.257 325.121 86.184 Q329.032 87.111 333.184 88.872 L333.184 98.614 L328.736 98.614 Q328.561 94.287 325.699 91.855 Q322.850 89.423 317.946 89.423 Q313.068 89.423 310.568 91.143 Q308.069 92.863 308.069 96.303 Q308.069 99.125 309.964 100.831 Q311.858 102.524 317.529 104.285 L323.657 106.179 Q329.999 108.155 332.781 111.111 Q335.576 114.067 335.576 118.730 Q335.576 125.072 330.725 128.714 Q325.874 132.342 317.354 132.342 Q313.027 132.342 308.916 131.415 Q304.804 130.488 300.678 128.647 Z M364.592 131.119 L342.931 131.119 L342.931 126.671 L349.905 126.671 L349.905 70.234 L342.461 70.234 L342.461 65.773 L357.632 65.773 L357.632 108.316 L376.444 90.968 L370.008 90.968 L370.008 86.480 L390.218 86.480 L390.218 90.968 L382.572 90.968 L369.295 103.236 L386.267 126.671 L392.690 126.671 L392.690 131.119 L370.679 131.119 L370.679 126.671 L377.062 126.671 L363.719 108.316 L357.632 113.986 L357.632 126.671 L364.592 126.671 L364.592 131.119 Z M410.658 139.303 L413.600 131.872 L396.925 90.968 L391.845 90.968 L391.845 86.480 L412.378 86.480 L412.378 90.968 L405.242 90.968 L417.806 121.673 L430.357 90.968 L423.679 90.968 L423.679 86.480 L440.435 86.480 L440.435 90.968 L435.436 90.968 L414.985 141.197 Q412.888 146.411 410.322 148.319 Q407.769 150.227 403.106 150.227 Q401.130 150.227 399.048 149.891 Q396.978 149.555 394.869 148.924 L394.869 140.405 L398.819 140.405 Q399.075 143.253 400.270 144.490 Q401.466 145.739 403.979 145.739 Q406.290 145.739 407.701 144.449 Q409.112 143.173 410.658 139.303 Z M445.429 131.119 L445.429 126.671 L453.411 126.671 L453.411 72.921 L444.972 72.921 L444.972 68.420 L463.234 68.420 L485.244 113.059 L507.241 68.420 L524.374 68.420 L524.374 72.921 L516.016 72.921 L516.016 126.671 L524.038 126.671 L524.038 131.119 L499.515 131.119 L499.515 126.671 L507.497 126.671 L507.497 78.202 L485.997 121.928 L480.071 121.928 L458.571 78.202 L458.571 126.671 L466.553 126.671 L466.553 131.119 L445.429 131.119 Z M562.968 117.090 L562.968 107.644 L553.011 107.644 Q547.260 107.644 544.438 110.130 Q541.630 112.602 541.630 117.722 Q541.630 122.385 544.478 125.113 Q547.341 127.840 552.218 127.840 Q557.042 127.840 559.999 124.857 Q562.968 121.874 562.968 117.090 Z M570.695 103.236 L570.695 126.671 L577.575 126.671 L577.575 131.119 L562.968 131.119 L562.968 126.295 Q560.402 129.399 557.042 130.877 Q553.683 132.342 549.195 132.342 Q541.764 132.342 537.397 128.391 Q533.030 124.441 533.030 117.722 Q533.030 110.788 538.028 106.972 Q543.027 103.156 552.138 103.156 L562.968 103.156 L562.968 100.092 Q562.968 94.999 559.878 92.218 Q556.801 89.423 551.211 89.423 Q546.588 89.423 543.860 91.519 Q541.132 93.615 540.461 97.740 L536.470 97.740 L536.470 88.710 Q540.501 86.990 544.304 86.130 Q548.106 85.257 551.708 85.257 Q560.993 85.257 565.844 89.866 Q570.695 94.462 570.695 103.236 Z M621.121 86.399 L621.121 97.566 L616.673 97.566 Q616.471 94.247 614.832 92.607 Q613.193 90.968 610.035 90.968 Q604.324 90.968 601.274 94.919 Q598.237 98.869 598.237 106.260 L598.237 126.671 L607.186 126.671 L607.186 131.119 L583.550 131.119 L583.550 126.671 L590.510 126.671 L590.510 90.887 L583.120 90.887 L583.120 86.480 L598.237 86.480 L598.237 94.421 Q600.508 89.759 604.069 87.515 Q607.643 85.257 612.776 85.257 Q614.657 85.257 616.740 85.553 Q618.823 85.848 621.121 86.399 Z M630.411 90.968 L623.598 90.968 L623.598 86.480 L630.411 86.480 L630.411 72.626 L638.178 72.626 L638.178 86.480 L652.704 86.480 L652.704 90.968 L638.178 90.968 L638.178 119.321 Q638.178 124.992 639.266 126.591 Q640.355 128.176 643.298 128.176 Q646.321 128.176 647.705 126.403 Q649.089 124.615 649.183 120.625 L655.015 120.625 Q654.679 126.712 651.696 129.534 Q648.713 132.342 642.626 132.342 Q635.947 132.342 633.179 129.386 Q630.411 126.416 630.411 119.321 L630.411 90.968 Z" stroke="none"/>
  <path d="M261.538 164.985 L261.538 169.641 L263.647 169.641 Q264.819 169.641 265.456 169.035 Q266.096 168.430 266.096 167.309 Q266.096 166.196 265.456 165.590 Q264.819 164.985 263.647 164.985 L261.538 164.985 Z M259.862 163.606 L263.647 163.606 Q265.733 163.606 266.798 164.549 Q267.866 165.492 267.866 167.309 Q267.866 169.144 266.798 170.082 Q265.733 171.020 263.647 171.020 L261.538 171.020 L261.538 176.000 L259.862 176.000 L259.862 163.606 Z M276.744 170.188 Q277.283 170.371 277.793 170.969 Q278.303 171.567 278.818 172.613 L280.521 176.000 L278.717 176.000 L277.134 172.820 Q276.518 171.575 275.942 171.168 Q275.365 170.762 274.369 170.762 L272.542 170.762 L272.542 176.000 L270.866 176.000 L270.866 163.606 L274.651 163.606 Q276.776 163.606 277.822 164.496 Q278.869 165.383 278.869 167.176 Q278.869 168.347 278.324 169.120 Q277.780 169.891 276.744 170.188 Z M272.542 164.985 L272.542 169.383 L274.651 169.383 Q275.862 169.383 276.481 168.823 Q277.100 168.262 277.100 167.176 Q277.100 166.090 276.481 165.537 Q275.862 164.985 274.651 164.985 L272.542 164.985 Z M283.521 163.606 L285.197 163.606 L285.197 176.000 L283.521 176.000 L283.521 163.606 Z M292.928 176.000 L288.197 163.606 L289.948 163.606 L293.876 174.040 L297.810 163.606 L299.553 163.606 L294.830 176.000 L292.928 176.000 Z M308.232 165.258 L305.955 171.426 L310.513 171.426 L308.232 165.258 Z M307.283 163.606 L309.185 163.606 L313.908 176.000 L312.166 176.000 L311.037 172.820 L305.451 172.820 L304.322 176.000 L302.553 176.000 L307.283 163.606 Z M316.908 163.606 L327.392 163.606 L327.392 165.019 L322.994 165.019 L322.994 176.000 L321.309 176.000 L321.309 165.019 L316.908 165.019 L316.908 163.606 Z M330.392 163.606 L338.228 163.606 L338.228 165.019 L332.068 165.019 L332.068 168.687 L337.971 168.687 L337.971 170.098 L332.068 170.098 L332.068 174.590 L338.377 174.590 L338.377 176.000 L330.392 176.000 L330.392 163.606 Z M360.492 164.562 L360.492 166.329 Q359.645 165.540 358.686 165.152 Q357.727 164.761 356.649 164.761 Q354.524 164.761 353.395 166.060 Q352.266 167.359 352.266 169.816 Q352.266 172.265 353.395 173.564 Q354.524 174.863 356.649 174.863 Q357.727 174.863 358.686 174.473 Q359.645 174.082 360.492 173.293 L360.492 175.046 Q359.613 175.644 358.628 175.944 Q357.645 176.242 356.551 176.242 Q353.735 176.242 352.115 174.520 Q350.497 172.797 350.497 169.816 Q350.497 166.828 352.115 165.107 Q353.735 163.383 356.551 163.383 Q357.661 163.383 358.644 163.678 Q359.629 163.972 360.492 164.562 Z M369.171 165.258 L366.895 171.426 L371.453 171.426 L369.171 165.258 Z M368.223 163.606 L370.125 163.606 L374.848 176.000 L373.105 176.000 L371.976 172.820 L366.390 172.820 L365.261 176.000 L363.492 176.000 L368.223 163.606 Z M385.825 164.012 L385.825 165.649 Q384.871 165.192 384.024 164.969 Q383.176 164.743 382.387 164.743 Q381.019 164.743 380.276 165.274 Q379.532 165.805 379.532 166.785 Q379.532 167.609 380.026 168.029 Q380.520 168.446 381.899 168.703 L382.911 168.910 Q384.786 169.269 385.679 170.170 Q386.571 171.070 386.571 172.579 Q386.571 174.382 385.362 175.312 Q384.156 176.242 381.824 176.242 Q380.945 176.242 379.952 176.042 Q378.961 175.843 377.898 175.453 L377.898 173.726 Q378.918 174.297 379.899 174.590 Q380.879 174.879 381.824 174.879 Q383.259 174.879 384.040 174.316 Q384.821 173.750 384.821 172.704 Q384.821 171.792 384.260 171.277 Q383.700 170.762 382.422 170.504 L381.399 170.305 Q379.524 169.933 378.685 169.136 Q377.848 168.339 377.848 166.918 Q377.848 165.274 379.006 164.328 Q380.164 163.383 382.196 163.383 Q383.070 163.383 383.973 163.542 Q384.879 163.699 385.825 164.012 Z M389.571 163.606 L391.247 163.606 L391.247 168.844 L396.809 163.606 L398.969 163.606 L392.817 169.383 L399.407 176.000 L397.200 176.000 L391.247 170.031 L391.247 176.000 L389.571 176.000 L389.571 163.606 Z M410.384 164.012 L410.384 165.649 Q409.430 165.192 408.583 164.969 Q407.736 164.743 406.947 164.743 Q405.579 164.743 404.835 165.274 Q404.091 165.805 404.091 166.785 Q404.091 167.609 404.585 168.029 Q405.079 168.446 406.458 168.703 L407.470 168.910 Q409.345 169.269 410.238 170.170 Q411.130 171.070 411.130 172.579 Q411.130 174.382 409.922 175.312 Q408.716 176.242 406.384 176.242 Q405.504 176.242 404.511 176.042 Q403.520 175.843 402.458 175.453 L402.458 173.726 Q403.478 174.297 404.458 174.590 Q405.438 174.879 406.384 174.879 Q407.818 174.879 408.599 174.316 Q409.380 173.750 409.380 172.704 Q409.380 171.792 408.819 171.277 Q408.259 170.762 406.981 170.504 L405.959 170.305 Q404.083 169.933 403.244 169.136 Q402.407 168.339 402.407 166.918 Q402.407 165.274 403.565 164.328 Q404.723 163.383 406.755 163.383 Q407.629 163.383 408.532 163.542 Q409.438 163.699 410.384 164.012 Z M414.130 173.891 L415.883 173.891 L415.883 176.000 L414.130 176.000 L414.130 173.891 Z M437.999 164.562 L437.999 166.329 Q437.151 165.540 436.193 165.152 Q435.234 164.761 434.155 164.761 Q432.030 164.761 430.901 166.060 Q429.772 167.359 429.772 169.816 Q429.772 172.265 430.901 173.564 Q432.030 174.863 434.155 174.863 Q435.234 174.863 436.193 174.473 Q437.151 174.082 437.999 173.293 L437.999 175.046 Q437.120 175.644 436.134 175.944 Q435.151 176.242 434.057 176.242 Q431.241 176.242 429.621 174.520 Q428.003 172.797 428.003 169.816 Q428.003 166.828 429.621 165.107 Q431.241 163.383 434.057 163.383 Q435.167 163.383 436.150 163.678 Q437.136 163.972 437.999 164.562 Z M440.999 163.606 L442.686 163.606 L442.686 171.136 Q442.686 173.129 443.405 174.005 Q444.128 174.879 445.748 174.879 Q447.358 174.879 448.080 174.005 Q448.803 173.129 448.803 171.136 L448.803 163.606 L450.487 163.606 L450.487 171.344 Q450.487 173.766 449.286 175.004 Q448.088 176.242 445.748 176.242 Q443.397 176.242 442.197 175.004 Q440.999 173.766 440.999 171.344 L440.999 163.606 Z M459.365 170.188 Q459.904 170.371 460.414 170.969 Q460.924 171.567 461.440 172.613 L463.142 176.000 L461.339 176.000 L459.756 172.820 Q459.139 171.575 458.563 171.168 Q457.987 170.762 456.991 170.762 L455.163 170.762 L455.163 176.000 L453.487 176.000 L453.487 163.606 L457.272 163.606 Q459.397 163.606 460.444 164.496 Q461.490 165.383 461.490 167.176 Q461.490 168.347 460.946 169.120 Q460.401 169.891 459.365 170.188 Z M455.163 164.985 L455.163 169.383 L457.272 169.383 Q458.483 169.383 459.102 168.823 Q459.721 168.262 459.721 167.176 Q459.721 166.090 459.102 165.537 Q458.483 164.985 457.272 164.985 L455.163 164.985 Z M471.821 165.258 L469.545 171.426 L474.103 171.426 L471.821 165.258 Z M470.873 163.606 L472.775 163.606 L477.498 176.000 L475.755 176.000 L474.626 172.820 L469.040 172.820 L467.911 176.000 L466.142 176.000 L470.873 163.606 Z M480.498 163.606 L490.982 163.606 L490.982 165.019 L486.583 165.019 L486.583 176.000 L484.899 176.000 L484.899 165.019 L480.498 165.019 L480.498 163.606 Z M493.982 163.606 L501.818 163.606 L501.818 165.019 L495.658 165.019 L495.658 168.687 L501.560 168.687 L501.560 170.098 L495.658 170.098 L495.658 174.590 L501.967 174.590 L501.967 176.000 L493.982 176.000 L493.982 163.606 Z M506.643 164.985 L506.643 174.621 L508.670 174.621 Q511.236 174.621 512.426 173.461 Q513.616 172.297 513.616 169.790 Q513.616 167.301 512.426 166.143 Q511.236 164.985 508.670 164.985 L506.643 164.985 Z M504.967 163.606 L508.412 163.606 Q512.014 163.606 513.698 165.104 Q515.385 166.602 515.385 169.790 Q515.385 172.996 513.690 174.499 Q511.998 176.000 508.412 176.000 L504.967 176.000 L504.967 163.606 Z M518.385 173.891 L520.138 173.891 L520.138 176.000 L518.385 176.000 L518.385 173.891 Z" stroke="none"/>
  <path d="M125 172 H184 M596 172 H655" fill="none" stroke-width="2"/>
</g>
</g>
</svg>